<svg id="visual" viewBox="0 0 900 600" width="900" height="600" xmlns="http://www.w3.org/2000/svg" xmlns:xlink="http://www.w3.org/1999/xlink" version="1.1"><path d="M0 67L9.3 70C18.7 73 37.3 79 56.2 75C75 71 94 57 112.8 55C131.7 53 150.3 63 169 68C187.7 73 206.3 73 225 68C243.7 63 262.3 53 281.2 48C300 43 319 43 337.8 42C356.7 41 375.3 39 394 42C412.7 45 431.3 53 450 53C468.7 53 487.3 45 506.2 40C525 35 544 33 562.8 40C581.7 47 600.3 63 619 72C637.7 81 656.3 83 675 78C693.7 73 712.3 61 731.2 59C750 57 769 65 787.8 63C806.7 61 825.3 49 844 44C862.7 39 881.3 41 890.7 42L900 43L900 0L890.7 0C881.3 0 862.7 0 844 0C825.3 0 806.7 0 787.8 0C769 0 750 0 731.2 0C712.3 0 693.7 0 675 0C656.3 0 637.7 0 619 0C600.3 0 581.7 0 562.8 0C544 0 525 0 506.2 0C487.3 0 468.7 0 450 0C431.3 0 412.7 0 394 0C375.3 0 356.7 0 337.8 0C319 0 300 0 281.2 0C262.3 0 243.7 0 225 0C206.3 0 187.7 0 169 0C150.3 0 131.7 0 112.8 0C94 0 75 0 56.2 0C37.3 0 18.7 0 9.3 0L0 0Z" fill="#9c54e6"></path><path d="M0 97L9.3 106C18.7 115 37.3 133 56.2 129C75 125 94 99 112.8 100C131.7 101 150.3 129 169 142C187.7 155 206.3 153 225 143C243.7 133 262.3 115 281.2 111C300 107 319 117 337.8 112C356.7 107 375.3 87 394 85C412.7 83 431.3 99 450 100C468.7 101 487.3 87 506.2 87C525 87 544 101 562.8 115C581.7 129 600.3 143 619 150C637.7 157 656.3 157 675 153C693.7 149 712.3 141 731.2 133C750 125 769 117 787.8 107C806.7 97 825.3 85 844 87C862.7 89 881.3 105 890.7 113L900 121L900 41L890.7 40C881.3 39 862.7 37 844 42C825.3 47 806.7 59 787.8 61C769 63 750 55 731.2 57C712.3 59 693.7 71 675 76C656.3 81 637.7 79 619 70C600.3 61 581.7 45 562.8 38C544 31 525 33 506.2 38C487.3 43 468.7 51 450 51C431.3 51 412.7 43 394 40C375.3 37 356.7 39 337.8 40C319 41 300 41 281.2 46C262.3 51 243.7 61 225 66C206.3 71 187.7 71 169 66C150.3 61 131.7 51 112.8 53C94 55 75 69 56.2 73C37.3 77 18.7 71 9.3 68L0 65Z" fill="#8c3ce1"></path><path d="M0 145L9.3 152C18.7 159 37.3 173 56.2 171C75 169 94 151 112.8 163C131.7 175 150.3 217 169 230C187.7 243 206.3 227 225 218C243.7 209 262.3 207 281.2 211C300 215 319 225 337.8 210C356.7 195 375.3 155 394 146C412.7 137 431.3 159 450 162C468.7 165 487.3 149 506.2 147C525 145 544 157 562.8 174C581.7 191 600.3 213 619 228C637.7 243 656.3 251 675 240C693.7 229 712.3 199 731.2 186C750 173 769 177 787.8 178C806.7 179 825.3 177 844 185C862.7 193 881.3 211 890.7 220L900 229L900 119L890.7 111C881.3 103 862.7 87 844 85C825.3 83 806.7 95 787.8 105C769 115 750 123 731.2 131C712.3 139 693.7 147 675 151C656.3 155 637.7 155 619 148C600.3 141 581.7 127 562.8 113C544 99 525 85 506.2 85C487.3 85 468.7 99 450 98C431.3 97 412.7 81 394 83C375.3 85 356.7 105 337.8 110C319 115 300 105 281.2 109C262.3 113 243.7 131 225 141C206.3 151 187.7 153 169 140C150.3 127 131.7 99 112.8 98C94 97 75 123 56.2 127C37.3 131 18.7 113 9.3 104L0 95Z" fill="#7b1edb"></path><path d="M0 265L9.3 266C18.7 267 37.3 269 56.2 263C75 257 94 243 112.8 259C131.7 275 150.3 321 169 329C187.7 337 206.3 307 225 288C243.7 269 262.3 261 281.2 272C300 283 319 313 337.8 306C356.7 299 375.3 255 394 240C412.7 225 431.3 239 450 248C468.7 257 487.3 261 506.2 273C525 285 544 305 562.8 321C581.7 337 600.3 349 619 348C637.7 347 656.3 333 675 310C693.7 287 712.3 255 731.2 254C750 253 769 283 787.8 295C806.7 307 825.3 301 844 300C862.7 299 881.3 303 890.7 305L900 307L900 227L890.7 218C881.3 209 862.7 191 844 183C825.3 175 806.7 177 787.8 176C769 175 750 171 731.2 184C712.3 197 693.7 227 675 238C656.3 249 637.7 241 619 226C600.3 211 581.7 189 562.8 172C544 155 525 143 506.2 145C487.3 147 468.7 163 450 160C431.3 157 412.7 135 394 144C375.3 153 356.7 193 337.8 208C319 223 300 213 281.2 209C262.3 205 243.7 207 225 216C206.3 225 187.7 241 169 228C150.3 215 131.7 173 112.8 161C94 149 75 167 56.2 169C37.3 171 18.7 157 9.3 150L0 143Z" fill="#6c02cc"></path><path d="M0 511L9.3 501C18.7 491 37.3 471 56.2 458C75 445 94 439 112.8 444C131.7 449 150.3 465 169 475C187.7 485 206.3 489 225 491C243.7 493 262.3 493 281.2 479C300 465 319 437 337.8 433C356.7 429 375.3 449 394 463C412.7 477 431.3 485 450 474C468.7 463 487.3 433 506.2 419C525 405 544 407 562.8 424C581.7 441 600.3 473 619 492C637.7 511 656.3 517 675 510C693.7 503 712.3 483 731.2 481C750 479 769 495 787.8 500C806.7 505 825.3 499 844 499C862.7 499 881.3 505 890.7 508L900 511L900 305L890.7 303C881.3 301 862.7 297 844 298C825.3 299 806.7 305 787.8 293C769 281 750 251 731.2 252C712.3 253 693.7 285 675 308C656.3 331 637.7 345 619 346C600.3 347 581.7 335 562.8 319C544 303 525 283 506.2 271C487.3 259 468.7 255 450 246C431.3 237 412.7 223 394 238C375.3 253 356.7 297 337.8 304C319 311 300 281 281.2 270C262.3 259 243.7 267 225 286C206.3 305 187.7 335 169 327C150.3 319 131.7 273 112.8 257C94 241 75 255 56.2 261C37.3 267 18.7 265 9.3 264L0 263Z" fill="#5f04b5"></path><path d="M0 601L9.3 601C18.7 601 37.3 601 56.2 601C75 601 94 601 112.8 601C131.7 601 150.3 601 169 601C187.7 601 206.3 601 225 601C243.7 601 262.3 601 281.2 601C300 601 319 601 337.8 601C356.7 601 375.3 601 394 601C412.7 601 431.3 601 450 601C468.7 601 487.3 601 506.2 601C525 601 544 601 562.8 601C581.7 601 600.3 601 619 601C637.7 601 656.3 601 675 601C693.7 601 712.3 601 731.2 601C750 601 769 601 787.8 601C806.7 601 825.3 601 844 601C862.7 601 881.3 601 890.7 601L900 601L900 509L890.7 506C881.3 503 862.7 497 844 497C825.3 497 806.7 503 787.8 498C769 493 750 477 731.2 479C712.3 481 693.7 501 675 508C656.3 515 637.7 509 619 490C600.3 471 581.7 439 562.8 422C544 405 525 403 506.2 417C487.3 431 468.7 461 450 472C431.3 483 412.7 475 394 461C375.3 447 356.7 427 337.8 431C319 435 300 463 281.2 477C262.3 491 243.7 491 225 489C206.3 487 187.7 483 169 473C150.3 463 131.7 447 112.8 442C94 437 75 443 56.2 456C37.3 469 18.7 489 9.3 499L0 509Z" fill="#53059e"></path></svg>