<svg id="Capa_1" enable-background="new 0 0 512 512" height="512" viewBox="0 0 512 512" width="512" xmlns="http://www.w3.org/2000/svg"><g><path d="m420.716 356.597c-33.903 55.413-94.993 92.387-164.716 92.387-3.791 0-7.551-.113-11.291-.33-95.024-50.983-155.588-144.854-181.693-192.592v-.062c0-67.116 34.264-126.238 86.257-160.811 26.671 32.626 79.365 82.414 149.284 122.406 27.392 49.088 66.508 99.299 122.159 139.002z" fill="#fcb44d"/><path d="m420.881 356.711c-34.326 56.268-96.652 93.293-167.765 92.253-2.823-.041-5.625-.144-8.406-.309-13.145-7.046-25.631-14.927-37.458-23.385 4.615.34 9.282.505 13.98.505 6.779 0 13.475-.35 20.078-1.04 12.074-1.246 16.792-16.318 7.603-24.261-23.684-20.49-47.543-42.701-71.113-66.272-41.218-41.217-78.459-83.527-109.323-123.962 6.49-26.671 18.523-51.19 34.81-72.236 32.914 46.574 76.347 97.404 124.827 145.884 37.612 37.612 75.863 71.577 112.805 100.288 18.77-14.866 34.707-33.131 46.884-53.878 10.321 9.198 21.333 18.047 33.078 26.413z" fill="#fca62f"/><path d="m265.745 448.747c-3.224.155-6.48.237-9.745.237-106.582 0-192.984-86.401-192.984-192.984 0-6.954.371-13.825 1.092-20.593 21.057 41.64 88.266 158.73 201.617 213.33.01 0 .01.01.02.01z" fill="#915eb2"/><path d="m265.745 448.747c-4.172.206-8.386.278-12.63.216-45.987-.68-88.08-17.441-120.892-44.906 26.63 13.877 56.897 21.716 89.008 21.716 1.452 0 2.895-.021 4.337-.052 12.671 8.468 26.053 16.225 40.156 23.014.011.002.011.012.021.012z" fill="#804ea0"/><path d="m286.875 223.137c-72.885-41.568-119.944-89.708-145.657-122.282 25.353-18.791 55.465-31.513 88.204-36.015 6.737 34.603 22.519 95.487 57.453 158.297z" fill="#fb6a3b"/><path d="m448.984 256c0 41.001-12.795 79.025-34.604 110.281-131.039-90.399-172.772-238.868-184.959-301.441 8.684-1.205 17.565-1.823 26.579-1.823 12.434 0 24.601 1.174 36.376 3.42 13.33 43.195 52.714 133.862 156.309 178.809.196 3.563.299 7.148.299 10.754z" fill="#fee7c9"/><path d="m448.984 256.865c-.186 40.847-12.867 78.551-34.429 109.539-.062-.041-.113-.082-.175-.124-11.744-8.097-22.767-16.668-33.12-25.6 20.799-30.802 32.956-67.92 32.956-107.891 0-1.854-.031-3.698-.083-5.532 10.642 6.552 22.128 12.599 34.552 17.977.216 3.843.32 7.727.299 11.631z" fill="#ffd597"/><path d="m448.974 254.341c-116.926-45.791-156.536-148.984-167.91-189.707 94.21 12.207 167.096 92.366 167.91 189.707z" fill="#a176bd"/><path d="m414.143 237.879c.052-1.689.072-3.389.072-5.089 0-59.483-26.919-112.681-69.238-148.078 61.337 31.925 103.379 95.838 103.997 169.63-12.476-4.884-24.066-10.426-34.831-16.463z" fill="#915eb2"/><path d="m435.901 325.948c-4.315 11.128-9.709 21.94-16.173 32.265 28.356 39.192 41.755 67.532 33.506 75.78-16.538 16.538-113.95-54.043-217.567-157.66s-174.199-201.029-157.661-217.567c8.249-8.249 36.588 5.15 75.78 33.506 10.325-6.465 21.137-11.858 32.265-16.173-84.596-62.519-154.504-91.45-177.953-68.002-35.145 35.145 47.36 174.62 184.272 311.532s276.388 219.417 311.532 184.272c23.449-23.448-5.482-93.356-68.001-177.953z" fill="#fee7c9"/><path d="m511.073 489.903c-1.195 5.687-3.564 10.395-7.17 14-35.15 35.139-174.616-47.357-311.537-184.268-136.911-136.922-219.408-276.388-184.269-311.538 3.606-3.606 8.314-5.975 14-7.17-10.456 49.747 68.59 174.667 191.449 297.527s247.779 201.905 297.527 191.449z" fill="#fcc16d"/></g></svg>