<svg id="visual" viewBox="0 0 960 540" width="960" height="540" xmlns="http://www.w3.org/2000/svg" xmlns:xlink="http://www.w3.org/1999/xlink" version="1.1"><path d="M0 458L22.8 457.8C45.7 457.7 91.3 457.3 137 454.2C182.7 451 228.3 445 274 431.8C319.7 418.7 365.3 398.3 411.2 401.7C457 405 503 432 548.8 438.7C594.7 445.3 640.3 431.7 686 431.5C731.7 431.3 777.3 444.7 823 450.7C868.7 456.7 914.3 455.3 937.2 454.7L960 454L960 541L937.2 541C914.3 541 868.7 541 823 541C777.3 541 731.7 541 686 541C640.3 541 594.7 541 548.8 541C503 541 457 541 411.2 541C365.3 541 319.7 541 274 541C228.3 541 182.7 541 137 541C91.3 541 45.7 541 22.8 541L0 541Z" fill="#583690"></path><path d="M0 468L22.8 457.2C45.7 446.3 91.3 424.7 137 418.3C182.7 412 228.3 421 274 423.7C319.7 426.3 365.3 422.7 411.2 428.2C457 433.7 503 448.3 548.8 453C594.7 457.7 640.3 452.3 686 451.8C731.7 451.3 777.3 455.7 823 456.7C868.7 457.7 914.3 455.3 937.2 454.2L960 453L960 541L937.2 541C914.3 541 868.7 541 823 541C777.3 541 731.7 541 686 541C640.3 541 594.7 541 548.8 541C503 541 457 541 411.2 541C365.3 541 319.7 541 274 541C228.3 541 182.7 541 137 541C91.3 541 45.7 541 22.8 541L0 541Z" fill="#683ea5"></path><path d="M0 459L22.8 457.5C45.7 456 91.3 453 137 454C182.7 455 228.3 460 274 458.2C319.7 456.3 365.3 447.7 411.2 444.7C457 441.7 503 444.3 548.8 451.5C594.7 458.7 640.3 470.3 686 469.5C731.7 468.7 777.3 455.3 823 449C868.7 442.7 914.3 443.3 937.2 443.7L960 444L960 541L937.2 541C914.3 541 868.7 541 823 541C777.3 541 731.7 541 686 541C640.3 541 594.7 541 548.8 541C503 541 457 541 411.2 541C365.3 541 319.7 541 274 541C228.3 541 182.7 541 137 541C91.3 541 45.7 541 22.8 541L0 541Z" fill="#7845bb"></path><path d="M0 461L22.8 466.5C45.7 472 91.3 483 137 488C182.7 493 228.3 492 274 488.8C319.7 485.7 365.3 480.3 411.2 478.3C457 476.3 503 477.7 548.8 482.5C594.7 487.3 640.3 495.7 686 495.5C731.7 495.3 777.3 486.7 823 485.3C868.7 484 914.3 490 937.2 493L960 496L960 541L937.2 541C914.3 541 868.7 541 823 541C777.3 541 731.7 541 686 541C640.3 541 594.7 541 548.8 541C503 541 457 541 411.2 541C365.3 541 319.7 541 274 541C228.3 541 182.7 541 137 541C91.3 541 45.7 541 22.8 541L0 541Z" fill="#8a4dd0"></path><path d="M0 512L22.8 508.3C45.7 504.7 91.3 497.3 137 497C182.7 496.7 228.3 503.3 274 508.3C319.7 513.3 365.3 516.7 411.2 516.8C457 517 503 514 548.8 508.3C594.7 502.7 640.3 494.3 686 493.3C731.7 492.3 777.3 498.7 823 502.7C868.7 506.7 914.3 508.3 937.2 509.2L960 510L960 541L937.2 541C914.3 541 868.7 541 823 541C777.3 541 731.7 541 686 541C640.3 541 594.7 541 548.8 541C503 541 457 541 411.2 541C365.3 541 319.7 541 274 541C228.3 541 182.7 541 137 541C91.3 541 45.7 541 22.8 541L0 541Z" fill="#9c54e6"></path></svg>