<svg id="visual" viewBox="0 0 900 600" width="900" height="600" xmlns="http://www.w3.org/2000/svg" xmlns:xlink="http://www.w3.org/1999/xlink" version="1.1"><path d="M0 37L13.7 42C27.3 47 54.7 57 82 62C109.3 67 136.7 67 163.8 66C191 65 218 63 245.2 69C272.3 75 299.7 89 327 89C354.3 89 381.7 75 409 72C436.3 69 463.7 77 491 83C518.3 89 545.7 93 573 90C600.3 87 627.7 77 654.8 67C682 57 709 47 736.2 48C763.3 49 790.7 61 818 70C845.3 79 872.7 85 886.3 88L900 91L900 0L886.3 0C872.7 0 845.3 0 818 0C790.7 0 763.3 0 736.2 0C709 0 682 0 654.8 0C627.7 0 600.3 0 573 0C545.7 0 518.3 0 491 0C463.7 0 436.3 0 409 0C381.7 0 354.3 0 327 0C299.7 0 272.3 0 245.2 0C218 0 191 0 163.8 0C136.7 0 109.3 0 82 0C54.7 0 27.3 0 13.7 0L0 0Z" fill="#7295fa"></path><path d="M0 115L13.7 117C27.3 119 54.7 123 82 137C109.3 151 136.7 175 163.8 191C191 207 218 215 245.2 223C272.3 231 299.7 239 327 238C354.3 237 381.7 227 409 220C436.3 213 463.7 209 491 202C518.3 195 545.7 185 573 188C600.3 191 627.7 207 654.8 208C682 209 709 195 736.2 187C763.3 179 790.7 177 818 177C845.3 177 872.7 179 886.3 180L900 181L900 89L886.3 86C872.7 83 845.3 77 818 68C790.7 59 763.3 47 736.2 46C709 45 682 55 654.8 65C627.7 75 600.3 85 573 88C545.7 91 518.3 87 491 81C463.7 75 436.3 67 409 70C381.7 73 354.3 87 327 87C299.7 87 272.3 73 245.2 67C218 61 191 63 163.8 64C136.7 65 109.3 65 82 60C54.7 55 27.3 45 13.7 40L0 35Z" fill="#527df6"></path><path d="M0 199L13.7 202C27.3 205 54.7 211 82 227C109.3 243 136.7 269 163.8 283C191 297 218 299 245.2 302C272.3 305 299.7 309 327 312C354.3 315 381.7 317 409 313C436.3 309 463.7 299 491 287C518.3 275 545.7 261 573 262C600.3 263 627.7 279 654.8 283C682 287 709 279 736.2 272C763.3 265 790.7 259 818 263C845.3 267 872.7 281 886.3 288L900 295L900 179L886.3 178C872.7 177 845.3 175 818 175C790.7 175 763.3 177 736.2 185C709 193 682 207 654.8 206C627.7 205 600.3 189 573 186C545.7 183 518.3 193 491 200C463.7 207 436.3 211 409 218C381.7 225 354.3 235 327 236C299.7 237 272.3 229 245.2 221C218 213 191 205 163.8 189C136.7 173 109.3 149 82 135C54.7 121 27.3 117 13.7 115L0 113Z" fill="#2965f1"></path><path d="M0 439L13.7 443C27.3 447 54.7 455 82 452C109.3 449 136.7 435 163.8 446C191 457 218 493 245.2 494C272.3 495 299.7 461 327 447C354.3 433 381.7 439 409 440C436.3 441 463.7 437 491 448C518.3 459 545.7 485 573 494C600.3 503 627.7 495 654.8 471C682 447 709 407 736.2 408C763.3 409 790.7 451 818 461C845.3 471 872.7 449 886.3 438L900 427L900 293L886.3 286C872.7 279 845.3 265 818 261C790.7 257 763.3 263 736.2 270C709 277 682 285 654.8 281C627.7 277 600.3 261 573 260C545.7 259 518.3 273 491 285C463.7 297 436.3 307 409 311C381.7 315 354.3 313 327 310C299.7 307 272.3 303 245.2 300C218 297 191 295 163.8 281C136.7 267 109.3 241 82 225C54.7 209 27.3 203 13.7 200L0 197Z" fill="#2157d2"></path><path d="M0 601L13.7 601C27.3 601 54.7 601 82 601C109.3 601 136.7 601 163.8 601C191 601 218 601 245.2 601C272.3 601 299.7 601 327 601C354.3 601 381.7 601 409 601C436.3 601 463.7 601 491 601C518.3 601 545.7 601 573 601C600.3 601 627.7 601 654.8 601C682 601 709 601 736.2 601C763.3 601 790.7 601 818 601C845.3 601 872.7 601 886.3 601L900 601L900 425L886.3 436C872.7 447 845.3 469 818 459C790.7 449 763.3 407 736.2 406C709 405 682 445 654.8 469C627.7 493 600.3 501 573 492C545.7 483 518.3 457 491 446C463.7 435 436.3 439 409 438C381.7 437 354.3 431 327 445C299.7 459 272.3 493 245.2 492C218 491 191 455 163.8 444C136.7 433 109.3 447 82 450C54.7 453 27.3 445 13.7 441L0 437Z" fill="#1949b3"></path></svg>