<svg id="visual" viewBox="0 0 900 600" width="900" height="600" xmlns="http://www.w3.org/2000/svg" xmlns:xlink="http://www.w3.org/1999/xlink" version="1.1"><path d="M0 157L13.7 164C27.3 171 54.7 185 82 174C109.3 163 136.7 127 163.8 126C191 125 218 159 245.2 174C272.3 189 299.7 185 327 173C354.3 161 381.7 141 409 144C436.3 147 463.7 173 491 178C518.3 183 545.7 167 573 159C600.3 151 627.7 151 654.8 158C682 165 709 179 736.2 182C763.3 185 790.7 177 818 173C845.3 169 872.7 169 886.3 169L900 169L900 0L886.3 0C872.7 0 845.3 0 818 0C790.7 0 763.3 0 736.2 0C709 0 682 0 654.8 0C627.7 0 600.3 0 573 0C545.7 0 518.3 0 491 0C463.7 0 436.3 0 409 0C381.7 0 354.3 0 327 0C299.7 0 272.3 0 245.2 0C218 0 191 0 163.8 0C136.7 0 109.3 0 82 0C54.7 0 27.3 0 13.7 0L0 0Z" fill="#9c54e6"></path><path d="M0 277L13.7 278C27.3 279 54.7 281 82 266C109.3 251 136.7 219 163.8 219C191 219 218 251 245.2 263C272.3 275 299.7 267 327 250C354.3 233 381.7 207 409 218C436.3 229 463.7 277 491 289C518.3 301 545.7 277 573 266C600.3 255 627.7 257 654.8 261C682 265 709 271 736.2 266C763.3 261 790.7 245 818 233C845.3 221 872.7 213 886.3 209L900 205L900 167L886.3 167C872.7 167 845.3 167 818 171C790.7 175 763.3 183 736.2 180C709 177 682 163 654.8 156C627.7 149 600.3 149 573 157C545.7 165 518.3 181 491 176C463.7 171 436.3 145 409 142C381.7 139 354.3 159 327 171C299.7 183 272.3 187 245.2 172C218 157 191 123 163.8 124C136.7 125 109.3 161 82 172C54.7 183 27.3 169 13.7 162L0 155Z" fill="#8835df"></path><path d="M0 439L13.7 431C27.3 423 54.7 407 82 397C109.3 387 136.7 383 163.8 388C191 393 218 407 245.2 410C272.3 413 299.7 405 327 405C354.3 405 381.7 413 409 414C436.3 415 463.7 409 491 401C518.3 393 545.7 383 573 387C600.3 391 627.7 409 654.8 422C682 435 709 443 736.2 452C763.3 461 790.7 471 818 466C845.3 461 872.7 441 886.3 431L900 421L900 203L886.3 207C872.7 211 845.3 219 818 231C790.7 243 763.3 259 736.2 264C709 269 682 263 654.8 259C627.7 255 600.3 253 573 264C545.7 275 518.3 299 491 287C463.7 275 436.3 227 409 216C381.7 205 354.3 231 327 248C299.7 265 272.3 273 245.2 261C218 249 191 217 163.8 217C136.7 217 109.3 249 82 264C54.7 279 27.3 277 13.7 276L0 275Z" fill="#7201d8"></path><path d="M0 553L13.7 554C27.3 555 54.7 557 82 549C109.3 541 136.7 523 163.8 524C191 525 218 545 245.2 548C272.3 551 299.7 537 327 527C354.3 517 381.7 511 409 517C436.3 523 463.7 541 491 540C518.3 539 545.7 519 573 520C600.3 521 627.7 543 654.8 547C682 551 709 537 736.2 534C763.3 531 790.7 539 818 535C845.3 531 872.7 515 886.3 507L900 499L900 419L886.3 429C872.7 439 845.3 459 818 464C790.7 469 763.3 459 736.2 450C709 441 682 433 654.8 420C627.7 407 600.3 389 573 385C545.7 381 518.3 391 491 399C463.7 407 436.3 413 409 412C381.7 411 354.3 403 327 403C299.7 403 272.3 411 245.2 408C218 405 191 391 163.8 386C136.7 381 109.3 385 82 395C54.7 405 27.3 421 13.7 429L0 437Z" fill="#6204bb"></path><path d="M0 601L13.7 601C27.3 601 54.7 601 82 601C109.3 601 136.7 601 163.8 601C191 601 218 601 245.2 601C272.3 601 299.7 601 327 601C354.3 601 381.7 601 409 601C436.3 601 463.7 601 491 601C518.3 601 545.7 601 573 601C600.3 601 627.7 601 654.8 601C682 601 709 601 736.2 601C763.3 601 790.7 601 818 601C845.3 601 872.7 601 886.3 601L900 601L900 497L886.3 505C872.7 513 845.3 529 818 533C790.7 537 763.3 529 736.2 532C709 535 682 549 654.8 545C627.7 541 600.3 519 573 518C545.7 517 518.3 537 491 538C463.7 539 436.3 521 409 515C381.7 509 354.3 515 327 525C299.7 535 272.3 549 245.2 546C218 543 191 523 163.8 522C136.7 521 109.3 539 82 547C54.7 555 27.3 553 13.7 552L0 551Z" fill="#53059e"></path></svg>