<svg id="visual" viewBox="0 0 900 600" width="900" height="600" xmlns="http://www.w3.org/2000/svg" xmlns:xlink="http://www.w3.org/1999/xlink" version="1.1"><path d="M0 43L6.5 47C13 51 26 59 39 66C52 73 65 79 78 79C91 79 104 73 117.2 77C130.3 81 143.7 95 156.8 95C170 95 183 81 196 85C209 89 222 111 235 106C248 101 261 69 274 58C287 47 300 57 313 68C326 79 339 91 352 96C365 101 378 99 391 94C404 89 417 81 430.2 82C443.3 83 456.7 93 469.8 87C483 81 496 59 509 58C522 57 535 77 548 90C561 103 574 109 587 107C600 105 613 95 626 93C639 91 652 97 665 91C678 85 691 67 704 59C717 51 730 53 743.2 61C756.3 69 769.7 83 782.8 89C796 95 809 93 822 87C835 81 848 71 861 63C874 55 887 49 893.5 46L900 43L900 0L893.5 0C887 0 874 0 861 0C848 0 835 0 822 0C809 0 796 0 782.8 0C769.7 0 756.3 0 743.2 0C730 0 717 0 704 0C691 0 678 0 665 0C652 0 639 0 626 0C613 0 600 0 587 0C574 0 561 0 548 0C535 0 522 0 509 0C496 0 483 0 469.8 0C456.7 0 443.3 0 430.2 0C417 0 404 0 391 0C378 0 365 0 352 0C339 0 326 0 313 0C300 0 287 0 274 0C261 0 248 0 235 0C222 0 209 0 196 0C183 0 170 0 156.8 0C143.7 0 130.3 0 117.2 0C104 0 91 0 78 0C65 0 52 0 39 0C26 0 13 0 6.5 0L0 0Z" fill="#fd9769"></path><path d="M0 97L6.5 104C13 111 26 125 39 125C52 125 65 111 78 108C91 105 104 113 117.2 121C130.3 129 143.7 137 156.8 137C170 137 183 129 196 131C209 133 222 145 235 144C248 143 261 129 274 122C287 115 300 115 313 119C326 123 339 131 352 140C365 149 378 159 391 156C404 153 417 137 430.2 133C443.3 129 456.7 137 469.8 133C483 129 496 113 509 111C522 109 535 121 548 134C561 147 574 161 587 165C600 169 613 163 626 155C639 147 652 137 665 123C678 109 691 91 704 89C717 87 730 101 743.2 112C756.3 123 769.7 131 782.8 135C796 139 809 139 822 138C835 137 848 135 861 125C874 115 887 97 893.5 88L900 79L900 41L893.5 44C887 47 874 53 861 61C848 69 835 79 822 85C809 91 796 93 782.8 87C769.7 81 756.3 67 743.2 59C730 51 717 49 704 57C691 65 678 83 665 89C652 95 639 89 626 91C613 93 600 103 587 105C574 107 561 101 548 88C535 75 522 55 509 56C496 57 483 79 469.8 85C456.7 91 443.3 81 430.2 80C417 79 404 87 391 92C378 97 365 99 352 94C339 89 326 77 313 66C300 55 287 45 274 56C261 67 248 99 235 104C222 109 209 87 196 83C183 79 170 93 156.8 93C143.7 93 130.3 79 117.2 75C104 71 91 77 78 77C65 77 52 71 39 64C26 57 13 49 6.5 45L0 41Z" fill="#fa8754"></path><path d="M0 151L6.5 181C13 211 26 271 39 274C52 277 65 223 78 218C91 213 104 257 117.2 267C130.3 277 143.7 253 156.8 245C170 237 183 245 196 257C209 269 222 285 235 300C248 315 261 329 274 320C287 311 300 279 313 263C326 247 339 247 352 246C365 245 378 243 391 251C404 259 417 277 430.2 289C443.3 301 456.7 307 469.8 282C483 257 496 201 509 180C522 159 535 173 548 193C561 213 574 239 587 242C600 245 613 225 626 237C639 249 652 293 665 285C678 277 691 217 704 192C717 167 730 177 743.2 213C756.3 249 769.7 311 782.8 314C796 317 809 261 822 248C835 235 848 265 861 281C874 297 887 299 893.5 300L900 301L900 77L893.5 86C887 95 874 113 861 123C848 133 835 135 822 136C809 137 796 137 782.8 133C769.7 129 756.3 121 743.2 110C730 99 717 85 704 87C691 89 678 107 665 121C652 135 639 145 626 153C613 161 600 167 587 163C574 159 561 145 548 132C535 119 522 107 509 109C496 111 483 127 469.8 131C456.7 135 443.3 127 430.2 131C417 135 404 151 391 154C378 157 365 147 352 138C339 129 326 121 313 117C300 113 287 113 274 120C261 127 248 141 235 142C222 143 209 131 196 129C183 127 170 135 156.8 135C143.7 135 130.3 127 117.2 119C104 111 91 103 78 106C65 109 52 123 39 123C26 123 13 109 6.5 102L0 95Z" fill="#f67740"></path><path d="M0 307L6.5 319C13 331 26 355 39 373C52 391 65 403 78 418C91 433 104 451 117.2 456C130.3 461 143.7 453 156.8 441C170 429 183 413 196 421C209 429 222 461 235 463C248 465 261 437 274 426C287 415 300 421 313 416C326 411 339 395 352 388C365 381 378 383 391 393C404 403 417 421 430.2 414C443.3 407 456.7 375 469.8 359C483 343 496 343 509 350C522 357 535 371 548 381C561 391 574 397 587 393C600 389 613 375 626 377C639 379 652 397 665 410C678 423 691 431 704 419C717 407 730 375 743.2 378C756.3 381 769.7 419 782.8 432C796 445 809 433 822 423C835 413 848 405 861 394C874 383 887 369 893.5 362L900 355L900 299L893.5 298C887 297 874 295 861 279C848 263 835 233 822 246C809 259 796 315 782.8 312C769.7 309 756.3 247 743.2 211C730 175 717 165 704 190C691 215 678 275 665 283C652 291 639 247 626 235C613 223 600 243 587 240C574 237 561 211 548 191C535 171 522 157 509 178C496 199 483 255 469.8 280C456.7 305 443.3 299 430.2 287C417 275 404 257 391 249C378 241 365 243 352 244C339 245 326 245 313 261C300 277 287 309 274 318C261 327 248 313 235 298C222 283 209 267 196 255C183 243 170 235 156.8 243C143.7 251 130.3 275 117.2 265C104 255 91 211 78 216C65 221 52 275 39 272C26 269 13 209 6.5 179L0 149Z" fill="#f1662a"></path><path d="M0 391L6.5 402C13 413 26 435 39 445C52 455 65 453 78 470C91 487 104 523 117.2 537C130.3 551 143.7 543 156.8 526C170 509 183 483 196 480C209 477 222 497 235 496C248 495 261 473 274 466C287 459 300 467 313 467C326 467 339 459 352 459C365 459 378 467 391 469C404 471 417 467 430.2 460C443.3 453 456.7 443 469.8 433C483 423 496 413 509 414C522 415 535 427 548 429C561 431 574 423 587 419C600 415 613 415 626 421C639 427 652 439 665 450C678 461 691 471 704 465C717 459 730 437 743.2 436C756.3 435 769.7 455 782.8 466C796 477 809 479 822 476C835 473 848 465 861 450C874 435 887 413 893.5 402L900 391L900 353L893.5 360C887 367 874 381 861 392C848 403 835 411 822 421C809 431 796 443 782.8 430C769.7 417 756.3 379 743.2 376C730 373 717 405 704 417C691 429 678 421 665 408C652 395 639 377 626 375C613 373 600 387 587 391C574 395 561 389 548 379C535 369 522 355 509 348C496 341 483 341 469.8 357C456.7 373 443.3 405 430.2 412C417 419 404 401 391 391C378 381 365 379 352 386C339 393 326 409 313 414C300 419 287 413 274 424C261 435 248 463 235 461C222 459 209 427 196 419C183 411 170 427 156.8 439C143.7 451 130.3 459 117.2 454C104 449 91 431 78 416C65 401 52 389 39 371C26 353 13 329 6.5 317L0 305Z" fill="#dc5c26"></path><path d="M0 529L6.5 537C13 545 26 561 39 570C52 579 65 581 78 583C91 585 104 587 117.2 583C130.3 579 143.7 569 156.8 561C170 553 183 547 196 545C209 543 222 545 235 551C248 557 261 567 274 566C287 565 300 553 313 551C326 549 339 557 352 558C365 559 378 553 391 549C404 545 417 543 430.2 540C443.3 537 456.7 533 469.8 533C483 533 496 537 509 536C522 535 535 529 548 528C561 527 574 531 587 532C600 533 613 531 626 536C639 541 652 553 665 562C678 571 691 577 704 575C717 573 730 563 743.2 553C756.3 543 769.7 533 782.8 534C796 535 809 547 822 558C835 569 848 579 861 579C874 579 887 569 893.5 564L900 559L900 389L893.5 400C887 411 874 433 861 448C848 463 835 471 822 474C809 477 796 475 782.8 464C769.7 453 756.3 433 743.2 434C730 435 717 457 704 463C691 469 678 459 665 448C652 437 639 425 626 419C613 413 600 413 587 417C574 421 561 429 548 427C535 425 522 413 509 412C496 411 483 421 469.8 431C456.7 441 443.3 451 430.2 458C417 465 404 469 391 467C378 465 365 457 352 457C339 457 326 465 313 465C300 465 287 457 274 464C261 471 248 493 235 494C222 495 209 475 196 478C183 481 170 507 156.8 524C143.7 541 130.3 549 117.2 535C104 521 91 485 78 468C65 451 52 453 39 443C26 433 13 411 6.5 400L0 389Z" fill="#c75223"></path><path d="M0 601L6.5 601C13 601 26 601 39 601C52 601 65 601 78 601C91 601 104 601 117.2 601C130.3 601 143.7 601 156.8 601C170 601 183 601 196 601C209 601 222 601 235 601C248 601 261 601 274 601C287 601 300 601 313 601C326 601 339 601 352 601C365 601 378 601 391 601C404 601 417 601 430.2 601C443.3 601 456.7 601 469.8 601C483 601 496 601 509 601C522 601 535 601 548 601C561 601 574 601 587 601C600 601 613 601 626 601C639 601 652 601 665 601C678 601 691 601 704 601C717 601 730 601 743.2 601C756.3 601 769.7 601 782.8 601C796 601 809 601 822 601C835 601 848 601 861 601C874 601 887 601 893.5 601L900 601L900 557L893.5 562C887 567 874 577 861 577C848 577 835 567 822 556C809 545 796 533 782.8 532C769.7 531 756.3 541 743.2 551C730 561 717 571 704 573C691 575 678 569 665 560C652 551 639 539 626 534C613 529 600 531 587 530C574 529 561 525 548 526C535 527 522 533 509 534C496 535 483 531 469.8 531C456.7 531 443.3 535 430.2 538C417 541 404 543 391 547C378 551 365 557 352 556C339 555 326 547 313 549C300 551 287 563 274 564C261 565 248 555 235 549C222 543 209 541 196 543C183 545 170 551 156.8 559C143.7 567 130.3 577 117.2 581C104 585 91 583 78 581C65 579 52 577 39 568C26 559 13 543 6.5 535L0 527Z" fill="#b3491f"></path></svg>