<svg id="visual" viewBox="0 0 900 600" width="900" height="600" xmlns="http://www.w3.org/2000/svg" xmlns:xlink="http://www.w3.org/1999/xlink" version="1.1"><path d="M0 43L13.7 51C27.3 59 54.7 75 82 79C109.3 83 136.7 75 163.8 69C191 63 218 59 245.2 54C272.3 49 299.7 43 327 49C354.3 55 381.7 73 409 83C436.3 93 463.7 95 491 99C518.3 103 545.7 109 573 110C600.3 111 627.7 107 654.8 95C682 83 709 63 736.2 59C763.3 55 790.7 67 818 67C845.3 67 872.7 55 886.3 49L900 43L900 0L886.3 0C872.7 0 845.3 0 818 0C790.7 0 763.3 0 736.2 0C709 0 682 0 654.8 0C627.7 0 600.3 0 573 0C545.7 0 518.3 0 491 0C463.7 0 436.3 0 409 0C381.7 0 354.3 0 327 0C299.7 0 272.3 0 245.2 0C218 0 191 0 163.8 0C136.7 0 109.3 0 82 0C54.7 0 27.3 0 13.7 0L0 0Z" fill="#d84b24"></path><path d="M0 163L13.7 170C27.3 177 54.7 191 82 210C109.3 229 136.7 253 163.8 269C191 285 218 293 245.2 293C272.3 293 299.7 285 327 291C354.3 297 381.7 317 409 314C436.3 311 463.7 285 491 265C518.3 245 545.7 231 573 243C600.3 255 627.7 293 654.8 301C682 309 709 287 736.2 267C763.3 247 790.7 229 818 216C845.3 203 872.7 195 886.3 191L900 187L900 41L886.3 47C872.7 53 845.3 65 818 65C790.7 65 763.3 53 736.2 57C709 61 682 81 654.8 93C627.7 105 600.3 109 573 108C545.7 107 518.3 101 491 97C463.7 93 436.3 91 409 81C381.7 71 354.3 53 327 47C299.7 41 272.3 47 245.2 52C218 57 191 61 163.8 67C136.7 73 109.3 81 82 77C54.7 73 27.3 57 13.7 49L0 41Z" fill="#e05b31"></path><path d="M0 277L13.7 286C27.3 295 54.7 313 82 322C109.3 331 136.7 331 163.8 337C191 343 218 355 245.2 360C272.3 365 299.7 363 327 368C354.3 373 381.7 385 409 384C436.3 383 463.7 369 491 354C518.3 339 545.7 323 573 328C600.3 333 627.7 359 654.8 361C682 363 709 341 736.2 331C763.3 321 790.7 323 818 315C845.3 307 872.7 289 886.3 280L900 271L900 185L886.3 189C872.7 193 845.3 201 818 214C790.7 227 763.3 245 736.2 265C709 285 682 307 654.8 299C627.7 291 600.3 253 573 241C545.7 229 518.3 243 491 263C463.7 283 436.3 309 409 312C381.7 315 354.3 295 327 289C299.7 283 272.3 291 245.2 291C218 291 191 283 163.8 267C136.7 251 109.3 227 82 208C54.7 189 27.3 175 13.7 168L0 161Z" fill="#e86b3e"></path><path d="M0 487L13.7 481C27.3 475 54.7 463 82 465C109.3 467 136.7 483 163.8 487C191 491 218 483 245.2 480C272.3 477 299.7 479 327 481C354.3 483 381.7 485 409 478C436.3 471 463.7 455 491 455C518.3 455 545.7 471 573 478C600.3 485 627.7 483 654.8 483C682 483 709 485 736.2 482C763.3 479 790.7 471 818 474C845.3 477 872.7 491 886.3 498L900 505L900 269L886.3 278C872.7 287 845.3 305 818 313C790.7 321 763.3 319 736.2 329C709 339 682 361 654.8 359C627.7 357 600.3 331 573 326C545.7 321 518.3 337 491 352C463.7 367 436.3 381 409 382C381.7 383 354.3 371 327 366C299.7 361 272.3 363 245.2 358C218 353 191 341 163.8 335C136.7 329 109.3 329 82 320C54.7 311 27.3 293 13.7 284L0 275Z" fill="#f0794c"></path><path d="M0 559L13.7 556C27.3 553 54.7 547 82 542C109.3 537 136.7 533 163.8 530C191 527 218 525 245.2 531C272.3 537 299.7 551 327 552C354.3 553 381.7 541 409 533C436.3 525 463.7 521 491 528C518.3 535 545.7 553 573 559C600.3 565 627.7 559 654.8 556C682 553 709 553 736.2 547C763.3 541 790.7 529 818 527C845.3 525 872.7 533 886.3 537L900 541L900 503L886.3 496C872.7 489 845.3 475 818 472C790.7 469 763.3 477 736.2 480C709 483 682 481 654.8 481C627.7 481 600.3 483 573 476C545.7 469 518.3 453 491 453C463.7 453 436.3 469 409 476C381.7 483 354.3 481 327 479C299.7 477 272.3 475 245.2 478C218 481 191 489 163.8 485C136.7 481 109.3 465 82 463C54.7 461 27.3 473 13.7 479L0 485Z" fill="#f7885a"></path><path d="M0 601L13.7 601C27.3 601 54.7 601 82 601C109.3 601 136.7 601 163.8 601C191 601 218 601 245.2 601C272.3 601 299.7 601 327 601C354.3 601 381.7 601 409 601C436.3 601 463.7 601 491 601C518.3 601 545.7 601 573 601C600.3 601 627.7 601 654.8 601C682 601 709 601 736.2 601C763.3 601 790.7 601 818 601C845.3 601 872.7 601 886.3 601L900 601L900 539L886.3 535C872.7 531 845.3 523 818 525C790.7 527 763.3 539 736.2 545C709 551 682 551 654.8 554C627.7 557 600.3 563 573 557C545.7 551 518.3 533 491 526C463.7 519 436.3 523 409 531C381.7 539 354.3 551 327 550C299.7 549 272.3 535 245.2 529C218 523 191 525 163.8 528C136.7 531 109.3 535 82 540C54.7 545 27.3 551 13.7 554L0 557Z" fill="#fe9668"></path></svg>