<svg id="visual" viewBox="0 0 900 600" width="900" height="600" xmlns="http://www.w3.org/2000/svg" xmlns:xlink="http://www.w3.org/1999/xlink" version="1.1"><path d="M0 97L13.7 88C27.3 79 54.7 61 82 55C109.3 49 136.7 55 163.8 57C191 59 218 57 245.2 60C272.3 63 299.7 71 327 73C354.3 75 381.7 71 409 68C436.3 65 463.7 63 491 68C518.3 73 545.7 85 573 88C600.3 91 627.7 85 654.8 83C682 81 709 83 736.2 84C763.3 85 790.7 85 818 82C845.3 79 872.7 73 886.3 70L900 67L900 0L886.3 0C872.7 0 845.3 0 818 0C790.7 0 763.3 0 736.2 0C709 0 682 0 654.8 0C627.7 0 600.3 0 573 0C545.7 0 518.3 0 491 0C463.7 0 436.3 0 409 0C381.7 0 354.3 0 327 0C299.7 0 272.3 0 245.2 0C218 0 191 0 163.8 0C136.7 0 109.3 0 82 0C54.7 0 27.3 0 13.7 0L0 0Z" fill="#0066ff"></path><path d="M0 229L13.7 231C27.3 233 54.7 237 82 225C109.3 213 136.7 185 163.8 183C191 181 218 205 245.2 210C272.3 215 299.7 201 327 206C354.3 211 381.7 235 409 241C436.3 247 463.7 235 491 228C518.3 221 545.7 219 573 231C600.3 243 627.7 269 654.8 266C682 263 709 231 736.2 222C763.3 213 790.7 227 818 220C845.3 213 872.7 185 886.3 171L900 157L900 65L886.3 68C872.7 71 845.3 77 818 80C790.7 83 763.3 83 736.2 82C709 81 682 79 654.8 81C627.7 83 600.3 89 573 86C545.7 83 518.3 71 491 66C463.7 61 436.3 63 409 66C381.7 69 354.3 73 327 71C299.7 69 272.3 61 245.2 58C218 55 191 57 163.8 55C136.7 53 109.3 47 82 53C54.7 59 27.3 77 13.7 86L0 95Z" fill="#2d70fe"></path><path d="M0 271L13.7 272C27.3 273 54.7 275 82 269C109.3 263 136.7 249 163.8 251C191 253 218 271 245.2 275C272.3 279 299.7 269 327 278C354.3 287 381.7 315 409 318C436.3 321 463.7 299 491 286C518.3 273 545.7 269 573 282C600.3 295 627.7 325 654.8 325C682 325 709 295 736.2 287C763.3 279 790.7 293 818 285C845.3 277 872.7 247 886.3 232L900 217L900 155L886.3 169C872.7 183 845.3 211 818 218C790.7 225 763.3 211 736.2 220C709 229 682 261 654.8 264C627.7 267 600.3 241 573 229C545.7 217 518.3 219 491 226C463.7 233 436.3 245 409 239C381.7 233 354.3 209 327 204C299.7 199 272.3 213 245.2 208C218 203 191 179 163.8 181C136.7 183 109.3 211 82 223C54.7 235 27.3 231 13.7 229L0 227Z" fill="#4379fe"></path><path d="M0 421L13.7 423C27.3 425 54.7 429 82 424C109.3 419 136.7 405 163.8 402C191 399 218 407 245.2 416C272.3 425 299.7 435 327 449C354.3 463 381.7 481 409 490C436.3 499 463.7 499 491 478C518.3 457 545.7 415 573 403C600.3 391 627.7 409 654.8 422C682 435 709 443 736.2 449C763.3 455 790.7 459 818 448C845.3 437 872.7 411 886.3 398L900 385L900 215L886.3 230C872.7 245 845.3 275 818 283C790.7 291 763.3 277 736.2 285C709 293 682 323 654.8 323C627.7 323 600.3 293 573 280C545.7 267 518.3 271 491 284C463.7 297 436.3 319 409 316C381.7 313 354.3 285 327 276C299.7 267 272.3 277 245.2 273C218 269 191 251 163.8 249C136.7 247 109.3 261 82 267C54.7 273 27.3 271 13.7 270L0 269Z" fill="#5483fd"></path><path d="M0 499L13.7 508C27.3 517 54.7 535 82 534C109.3 533 136.7 513 163.8 501C191 489 218 485 245.2 490C272.3 495 299.7 509 327 518C354.3 527 381.7 531 409 534C436.3 537 463.7 539 491 529C518.3 519 545.7 497 573 495C600.3 493 627.7 511 654.8 515C682 519 709 509 736.2 506C763.3 503 790.7 507 818 504C845.3 501 872.7 491 886.3 486L900 481L900 383L886.3 396C872.7 409 845.3 435 818 446C790.7 457 763.3 453 736.2 447C709 441 682 433 654.8 420C627.7 407 600.3 389 573 401C545.7 413 518.3 455 491 476C463.7 497 436.3 497 409 488C381.7 479 354.3 461 327 447C299.7 433 272.3 423 245.2 414C218 405 191 397 163.8 400C136.7 403 109.3 417 82 422C54.7 427 27.3 423 13.7 421L0 419Z" fill="#648cfb"></path><path d="M0 601L13.7 601C27.3 601 54.7 601 82 601C109.3 601 136.7 601 163.8 601C191 601 218 601 245.2 601C272.3 601 299.7 601 327 601C354.3 601 381.7 601 409 601C436.3 601 463.7 601 491 601C518.3 601 545.7 601 573 601C600.3 601 627.7 601 654.8 601C682 601 709 601 736.2 601C763.3 601 790.7 601 818 601C845.3 601 872.7 601 886.3 601L900 601L900 479L886.3 484C872.7 489 845.3 499 818 502C790.7 505 763.3 501 736.2 504C709 507 682 517 654.8 513C627.7 509 600.3 491 573 493C545.7 495 518.3 517 491 527C463.7 537 436.3 535 409 532C381.7 529 354.3 525 327 516C299.7 507 272.3 493 245.2 488C218 483 191 487 163.8 499C136.7 511 109.3 531 82 532C54.7 533 27.3 515 13.7 506L0 497Z" fill="#7295fa"></path></svg>