<svg id="visual" viewBox="0 0 900 600" width="900" height="600" xmlns="http://www.w3.org/2000/svg" xmlns:xlink="http://www.w3.org/1999/xlink" version="1.1"><path d="M0 37L13.7 46C27.3 55 54.7 73 82 76C109.3 79 136.7 67 163.8 53C191 39 218 23 245.2 31C272.3 39 299.7 71 327 88C354.3 105 381.7 107 409 96C436.3 85 463.7 61 491 50C518.3 39 545.7 41 573 40C600.3 39 627.7 35 654.8 46C682 57 709 83 736.2 96C763.3 109 790.7 109 818 90.8C845.3 72.7 872.7 36.3 886.3 18.2L900 0L900 0L886.3 0C872.7 0 845.3 0 818 0C790.7 0 763.3 0 736.2 0C709 0 682 0 654.8 0C627.7 0 600.3 0 573 0C545.7 0 518.3 0 491 0C463.7 0 436.3 0 409 0C381.7 0 354.3 0 327 0C299.7 0 272.3 0 245.2 0C218 0 191 0 163.8 0C136.7 0 109.3 0 82 0C54.7 0 27.3 0 13.7 0L0 0Z" fill="#c9b311"></path><path d="M0 163L13.7 175C27.3 187 54.7 211 82 205C109.3 199 136.7 163 163.8 157C191 151 218 175 245.2 180C272.3 185 299.7 171 327 159C354.3 147 381.7 137 409 124C436.3 111 463.7 95 491 86C518.3 77 545.7 75 573 96C600.3 117 627.7 161 654.8 173C682 185 709 165 736.2 162C763.3 159 790.7 173 818 158C845.3 143 872.7 99 886.3 77L900 55L900 0L886.3 17.8C872.7 35.7 845.3 71.3 818 89.2C790.7 107 763.3 107 736.2 94C709 81 682 55 654.8 44C627.7 33 600.3 37 573 38C545.7 39 518.3 37 491 48C463.7 59 436.3 83 409 94C381.7 105 354.3 103 327 86C299.7 69 272.3 37 245.2 29C218 21 191 37 163.8 51C136.7 65 109.3 77 82 74C54.7 71 27.3 53 13.7 44L0 35Z" fill="#d4bd2f"></path><path d="M0 277L13.7 276C27.3 275 54.7 273 82 267C109.3 261 136.7 251 163.8 251C191 251 218 261 245.2 263C272.3 265 299.7 259 327 236C354.3 213 381.7 173 409 164C436.3 155 463.7 177 491 190C518.3 203 545.7 207 573 215C600.3 223 627.7 235 654.8 239C682 243 709 239 736.2 236C763.3 233 790.7 231 818 211C845.3 191 872.7 153 886.3 134L900 115L900 53L886.3 75C872.7 97 845.3 141 818 156C790.7 171 763.3 157 736.2 160C709 163 682 183 654.8 171C627.7 159 600.3 115 573 94C545.7 73 518.3 75 491 84C463.7 93 436.3 109 409 122C381.7 135 354.3 145 327 157C299.7 169 272.3 183 245.2 178C218 173 191 149 163.8 155C136.7 161 109.3 197 82 203C54.7 209 27.3 185 13.7 173L0 161Z" fill="#dfc745"></path><path d="M0 427L13.7 409C27.3 391 54.7 355 82 366C109.3 377 136.7 435 163.8 454C191 473 218 453 245.2 444C272.3 435 299.7 437 327 415C354.3 393 381.7 347 409 348C436.3 349 463.7 397 491 405C518.3 413 545.7 381 573 361C600.3 341 627.7 333 654.8 323C682 313 709 301 736.2 298C763.3 295 790.7 301 818 300C845.3 299 872.7 291 886.3 287L900 283L900 113L886.3 132C872.7 151 845.3 189 818 209C790.7 229 763.3 231 736.2 234C709 237 682 241 654.8 237C627.7 233 600.3 221 573 213C545.7 205 518.3 201 491 188C463.7 175 436.3 153 409 162C381.7 171 354.3 211 327 234C299.7 257 272.3 263 245.2 261C218 259 191 249 163.8 249C136.7 249 109.3 259 82 265C54.7 271 27.3 273 13.7 274L0 275Z" fill="#ead159"></path><path d="M0 547L13.7 526C27.3 505 54.7 463 82 464C109.3 465 136.7 509 163.8 528C191 547 218 541 245.2 539C272.3 537 299.7 539 327 514C354.3 489 381.7 437 409 439C436.3 441 463.7 497 491 496C518.3 495 545.7 437 573 414C600.3 391 627.7 403 654.8 404C682 405 709 395 736.2 393C763.3 391 790.7 397 818 398C845.3 399 872.7 395 886.3 393L900 391L900 281L886.3 285C872.7 289 845.3 297 818 298C790.7 299 763.3 293 736.2 296C709 299 682 311 654.8 321C627.7 331 600.3 339 573 359C545.7 379 518.3 411 491 403C463.7 395 436.3 347 409 346C381.7 345 354.3 391 327 413C299.7 435 272.3 433 245.2 442C218 451 191 471 163.8 452C136.7 433 109.3 375 82 364C54.7 353 27.3 389 13.7 407L0 425Z" fill="#f5db6c"></path><path d="M0 601L13.7 601C27.3 601 54.7 601 82 601C109.3 601 136.7 601 163.8 601C191 601 218 601 245.2 601C272.3 601 299.7 601 327 601C354.3 601 381.7 601 409 601C436.3 601 463.7 601 491 601C518.3 601 545.7 601 573 601C600.3 601 627.7 601 654.8 601C682 601 709 601 736.2 601C763.3 601 790.7 601 818 601C845.3 601 872.7 601 886.3 601L900 601L900 389L886.3 391C872.7 393 845.3 397 818 396C790.7 395 763.3 389 736.2 391C709 393 682 403 654.8 402C627.7 401 600.3 389 573 412C545.7 435 518.3 493 491 494C463.7 495 436.3 439 409 437C381.7 435 354.3 487 327 512C299.7 537 272.3 535 245.2 537C218 539 191 545 163.8 526C136.7 507 109.3 463 82 462C54.7 461 27.3 503 13.7 524L0 545Z" fill="#ffe57e"></path></svg>